<?xml version="1.0"?>
<svg xmlns="http://www.w3.org/2000/svg" xmlns:xlink="http://www.w3.org/1999/xlink" xmlns:svgjs="http://svgjs.com/svgjs" version="1.1" width="512" height="512" x="0" y="0" viewBox="0 0 511.448 511.448" style="enable-background:new 0 0 512 512" xml:space="preserve" class=""><g><path xmlns="http://www.w3.org/2000/svg" d="m436.508 74.94c-99.913-99.913-261.64-99.928-361.567 0-99.913 99.913-99.928 261.64 0 361.567 99.913 99.913 261.64 99.928 361.567 0 99.912-99.912 99.927-261.639 0-361.567z" fill="#027334" data-original="#ffebd2" style="" class=""/><path xmlns="http://www.w3.org/2000/svg" d="m231.344 1.207c-120.675 11.426-217.174 106.928-229.875 227.456-1.381 13.103 9.53 24.246 22.665 23.125 121.147-10.31 218.473-106.262 230.094-227.673 1.257-13.118-9.76-24.147-22.884-22.908z" fill="#027334" data-original="#fff3e4" style="" class=""/><g xmlns="http://www.w3.org/2000/svg" fill="#99d856"><path d="m279.283 239.147-96-74.667c-13.776-10.713-33.893-.865-33.893 16.577v149.333c0 17.563 20.25 27.186 33.893 16.577l96-74.667c10.795-8.396 10.81-24.745 0-33.153z" fill="#ffffff" data-original="#99d856" style="" class=""/><path d="m341.057 160.057c-11.598 0-21 9.402-21 21v149.333c0 11.598 9.402 21 21 21s21-9.402 21-21v-149.333c0-11.598-9.401-21-21-21z" fill="#ffffff" data-original="#99d856" style="" class=""/></g></g></svg>
